HIERARCHY
ROOT Hips
{
	OFFSET -0.001795 -0.223333 0.028219
	CHANNELS 6 Xposition Yposition Zposition Zrotation Yrotation Xrotation 
	JOINT LeftUpLeg
	{
		OFFSET 0.069520 -0.091406 -0.006815
		CHANNELS 3 Zrotation Yrotation Xrotation
		JOINT LeftLeg
		{
			OFFSET 0.034277 -0.375199 -0.004496
			CHANNELS 3 Zrotation Yrotation Xrotation
			JOINT LeftFoot
			{
				OFFSET -0.013596 -0.397961 -0.043693
				CHANNELS 3 Zrotation Yrotation Xrotation
				JOINT LeftToe
				{
					OFFSET 0.026358 -0.055791 0.119288
					CHANNELS 3 Zrotation Yrotation Xrotation
					End Site
					{
						OFFSET 0.000000 0.000000 0.000000
					}
				}
			}
		}
	}
	JOINT RightUpLeg
	{
		OFFSET -0.067670 -0.090522 -0.004320
		CHANNELS 3 Zrotation Yrotation Xrotation
		JOINT RightLeg
		{
			OFFSET -0.038290 -0.382569 -0.008850
			CHANNELS 3 Zrotation Yrotation Xrotation
			JOINT RightFoot
			{
				OFFSET 0.015774 -0.398415 -0.042312
				CHANNELS 3 Zrotation Yrotation Xrotation
				JOINT RightToe
				{
					OFFSET -0.025372 -0.048144 0.123348
					CHANNELS 3 Zrotation Yrotation Xrotation
					End Site
					{
						OFFSET 0.000000 0.000000 0.000000
					}
				}
			}
		}
	}
	JOINT Spine
	{
		OFFSET -0.002533 0.108963 -0.026696
		CHANNELS 3 Zrotation Yrotation Xrotation
		JOINT Spine1
		{
			OFFSET 0.005487 0.135180 0.001092
			CHANNELS 3 Zrotation Yrotation Xrotation
			JOINT Spine2
			{
				OFFSET 0.001457 0.052922 0.025425
				CHANNELS 3 Zrotation Yrotation Xrotation
				JOINT Neck
				{
					OFFSET -0.002778 0.213870 -0.042857
					CHANNELS 3 Zrotation Yrotation Xrotation
					JOINT Head
					{
						OFFSET 0.005152 0.064970 0.051349
						CHANNELS 3 Zrotation Yrotation Xrotation
						End Site
						{
							OFFSET 0.000000 0.000000 0.000000
						}
					}
				}
				JOINT LeftShoulder
				{
					OFFSET 0.078845 0.121749 -0.034090
					CHANNELS 3 Zrotation Yrotation Xrotation
					JOINT LeftArm
					{
						OFFSET 0.090977 0.030469 -0.008868
						CHANNELS 3 Zrotation Yrotation Xrotation
						JOINT LeftForeArm
						{
							OFFSET 0.259612 -0.012772 -0.027456
							CHANNELS 3 Zrotation Yrotation Xrotation
							JOINT LeftHand
							{
								OFFSET 0.249234 0.008986 -0.001171
								CHANNELS 3 Zrotation Yrotation Xrotation
								End Site
								{
									OFFSET 0.000000 0.000000 0.000000
								}
							}
						}
					}
				}
				JOINT RightShoulder
				{
					OFFSET -0.081759 0.118833 -0.038615
					CHANNELS 3 Zrotation Yrotation Xrotation
					JOINT RightArm
					{
						OFFSET -0.096012 0.032551 -0.009143
						CHANNELS 3 Zrotation Yrotation Xrotation
						JOINT RightForeArm
						{
							OFFSET -0.253742 -0.013329 -0.021401
							CHANNELS 3 Zrotation Yrotation Xrotation
							JOINT RightHand
							{
								OFFSET -0.255298 0.007772 -0.005559
								CHANNELS 3 Zrotation Yrotation Xrotation
								End Site
								{
									OFFSET 0.000000 0.000000 0.000000
								}
							}
						}
					}
				}
			}
		}
	}
}
MOTION
Frames: 14
Frame Time: 0.050000
-0.031783 0.947513 -0.028741 -2.439309 -50.508834 6.008973 1.763897 1.550709 9.206623 0.144575 0.186123 -5.889242 21.151224 31.079627 25.459303 0.000000 0.000000 0.000000 2.191299 1.344322 -12.172728 -3.722389 0.358347 2.526452 19.684264 22.347360 17.273123 0.000000 0.000000 0.000000 9.436810 -0.436164 5.641148 0.811519 0.114842 -27.118494 -17.732381 -22.561912 33.617613 1.711199 -6.930326 -32.224547 0.000000 0.000000 0.000000 2.525442 -25.756219 13.684073 -45.037197 -43.370639 17.972690 21.849258 -20.570392 -3.254286 0.000000 0.000000 0.000000 8.423656 -6.641078 -15.526394 56.816491 -19.998686 -19.353943 84.307624 45.782080 22.463594 0.000000 0.000000 0.000000 
-0.030668 0.947704 -0.030209 -1.811027 -48.009705 5.311255 2.110045 1.558873 9.461217 -0.111874 0.264178 -6.691422 19.689705 29.703919 23.940866 0.000000 0.000000 0.000000 1.371936 1.276181 -11.806650 -3.458126 0.323326 2.237036 18.721217 21.587653 16.509229 0.000000 0.000000 0.000000 9.434842 -0.448615 5.584557 0.426607 0.226643 -27.375796 -17.586913 -21.757094 34.178657 1.952134 -6.938259 -32.007757 0.000000 0.000000 0.000000 3.158316 -25.760677 12.687696 -45.862110 -40.060086 16.207637 20.578222 -22.132185 -3.077445 0.000000 0.000000 0.000000 8.928808 -7.378879 -15.526092 57.884975 -18.479358 -18.938139 82.941587 47.028730 23.516845 0.000000 0.000000 0.000000 
-0.029699 0.947667 -0.031445 -1.247426 -45.585685 4.763560 1.994970 1.480708 9.301721 0.018164 0.271893 -7.148011 18.412344 28.362756 22.783278 0.000000 0.000000 0.000000 0.716661 1.180957 -11.216592 -3.058740 0.280306 1.907374 17.639297 20.877743 15.507915 0.000000 0.000000 0.000000 9.191398 -0.441754 5.284924 -0.040825 0.226555 -26.706194 -16.622527 -20.908950 33.893108 1.770287 -6.634984 -32.110057 0.000000 0.000000 0.000000 3.232271 -24.554997 11.510291 -47.313570 -36.076449 14.186615 19.398452 -26.637027 -3.057130 0.000000 0.000000 0.000000 9.372010 -8.353979 -15.361882 58.463852 -16.850912 -18.180409 81.356861 48.519072 24.681818 0.000000 0.000000 0.000000 
-0.029039 0.947701 -0.032576 -0.714410 -41.964261 4.239957 2.808810 1.360297 8.971068 -0.569326 0.399740 -8.019299 16.521892 25.979676 21.726632 0.000000 0.000000 0.000000 0.255596 1.044510 -10.278574 -2.911679 0.239710 1.382795 16.019820 18.661509 14.709923 0.000000 0.000000 0.000000 8.945320 -0.441065 4.960644 -0.929800 0.394616 -26.519551 -15.571100 -19.966528 34.029752 1.987635 -6.399524 -32.096785 0.000000 0.000000 0.000000 2.462676 -22.736119 10.487323 -48.753036 -31.999376 11.760969 18.893320 -33.989438 -3.085145 0.000000 0.000000 0.000000 10.348206 -9.479774 -15.447503 58.581136 -15.138254 -17.045578 78.080172 50.432041 25.736486 0.000000 0.000000 0.000000 
-0.028376 0.947493 -0.033450 -0.383690 -37.970457 3.890029 3.598551 1.198552 8.417492 -0.805591 0.424142 -8.076640 14.588812 23.848676 19.824140 0.000000 0.000000 0.000000 -0.453691 0.923450 -9.293818 -2.044817 0.186172 1.158462 13.533485 16.082626 12.814938 0.000000 0.000000 0.000000 8.670989 -0.428624 4.519576 -1.627460 0.506030 -25.824944 -14.036091 -18.480418 33.968515 2.135501 -5.988375 -32.055338 0.000000 0.000000 0.000000 1.706528 -20.524498 9.243740 -49.988936 -26.994584 8.717797 17.730952 -44.651299 -2.366981 0.000000 0.000000 0.000000 11.327070 -10.512123 -15.184645 58.432446 -13.937686 -16.091517 75.230406 53.702652 28.346414 0.000000 0.000000 0.000000 
-0.027673 0.947813 -0.034356 -0.157002 -33.478451 3.643954 4.149926 1.077491 8.226887 -0.906191 0.472192 -8.841114 12.773689 21.491766 19.167711 0.000000 0.000000 0.000000 -0.889921 0.821309 -8.374055 -2.128165 0.170069 0.760573 11.294647 12.939097 11.761315 0.000000 0.000000 0.000000 8.200180 -0.415956 4.085150 -2.771407 0.758703 -25.109058 -11.867979 -17.295499 33.644930 2.064330 -5.367136 -32.253703 0.000000 0.000000 0.000000 -0.193862 -18.086567 8.665551 -49.560649 -21.463803 4.784780 14.637202 -56.069487 0.084610 0.000000 0.000000 0.000000 12.151437 -11.190433 -14.625298 58.710514 -11.439266 -14.721452 71.254467 57.793571 30.766818 0.000000 0.000000 0.000000 
-0.026880 0.948089 -0.035056 -0.052896 -29.441555 3.483597 4.804011 0.905387 7.534677 -1.061178 0.463950 -8.652707 11.041487 19.612664 16.828661 0.000000 0.000000 0.000000 -1.274308 0.734014 -7.506444 -1.773714 0.137839 0.465701 9.060681 9.879438 10.609199 0.000000 0.000000 0.000000 7.841278 -0.409119 3.820332 -4.090083 1.126997 -24.946763 -9.746189 -15.343232 33.369649 1.737559 -4.622628 -31.829115 0.000000 0.000000 0.000000 -1.195600 -14.907427 7.258158 -48.006212 -15.891738 1.140631 6.028703 -66.369678 7.131489 0.000000 0.000000 0.000000 11.700747 -12.240258 -13.313988 58.883177 -8.729709 -13.638052 67.256214 61.715386 32.878214 0.000000 0.000000 0.000000 
-0.026178 0.948544 -0.036161 -0.383718 -25.209073 3.567121 6.115364 0.742394 6.920397 -1.876393 0.532403 -8.908357 9.545390 17.707814 15.887258 0.000000 0.000000 0.000000 -0.896800 0.640631 -6.674146 -2.014695 0.148273 0.264780 7.252634 7.134582 10.013684 0.000000 0.000000 0.000000 7.680341 -0.406388 3.544540 -5.690929 1.571131 -24.465143 -6.987371 -13.927036 32.760758 2.122272 -4.227278 -31.124187 0.000000 0.000000 0.000000 -1.941029 -12.207991 6.071055 -45.687019 -10.181632 -2.091444 -3.177053 -75.532457 16.500633 0.000000 0.000000 0.000000 11.235206 -13.602455 -12.447788 59.037882 -6.461413 -12.633293 65.916134 65.364362 36.315552 0.000000 0.000000 0.000000 
-0.025815 0.949425 -0.037427 -0.598761 -21.560348 3.373423 6.936861 0.599873 6.253555 -1.761217 0.475651 -8.278631 8.328696 16.142295 15.087978 0.000000 0.000000 0.000000 -0.763481 0.527087 -5.535701 -1.605572 0.073292 -0.740855 5.572330 4.173593 9.898716 0.000000 0.000000 0.000000 7.387365 -0.394712 3.342503 -6.564047 1.851559 -24.009277 -5.353343 -11.262205 32.629293 2.976402 -3.957915 -30.769212 0.000000 0.000000 0.000000 -0.975889 -9.293398 4.140621 -43.456545 -7.753917 -3.415682 -4.123396 -80.732365 18.885936 0.000000 0.000000 0.000000 11.394898 -14.754407 -11.950267 59.346602 -3.946080 -11.371607 61.153651 68.895585 37.459026 0.000000 0.000000 0.000000 
-0.025708 0.949937 -0.038751 -1.186219 -17.741139 3.275005 8.536375 0.456636 5.721249 -2.675572 0.521352 -8.120755 6.598173 13.751456 14.235168 0.000000 0.000000 0.000000 -0.090379 0.448971 -4.825382 -1.329844 0.051104 -0.951012 4.159273 1.639310 10.101095 0.000000 0.000000 0.000000 7.090800 -0.403371 3.345934 -7.275424 2.103848 -23.410615 -3.358614 -9.165830 31.494933 4.918755 -4.303019 -29.643125 0.000000 0.000000 0.000000 -0.580401 -7.289126 3.039623 -41.032369 -5.735953 -4.411069 16.563753 -84.937071 0.496483 0.000000 0.000000 0.000000 11.865731 -15.626460 -11.590649 59.171410 -2.689245 -10.465833 57.323213 72.129192 38.897153 0.000000 0.000000 0.000000 
-0.025388 0.950451 -0.039696 -1.453432 -14.445235 3.093429 9.248654 0.317350 4.801491 -2.491120 0.462297 -7.335315 5.532273 12.323143 13.521601 0.000000 0.000000 0.000000 0.153786 0.355926 -3.871313 -1.134591 0.015828 -1.510672 3.032816 -0.195844 10.124953 0.000000 0.000000 0.000000 6.686756 -0.384528 3.158928 -7.996908 2.348052 -23.413236 -1.934512 -7.011815 31.445072 5.591063 -4.052726 -29.210128 0.000000 0.000000 0.000000 0.057212 -6.041805 2.293006 -38.968211 -5.804704 -4.524527 59.352208 -83.625426 -39.502665 0.000000 0.000000 0.000000 12.218518 -16.169526 -11.182016 58.722781 -1.096256 -9.476293 51.218909 75.103889 38.148525 0.000000 0.000000 0.000000 
-0.024303 0.950837 -0.040157 -1.822534 -11.448074 3.030535 10.175836 0.196293 4.187490 -2.783322 0.459918 -7.157917 4.234495 10.523526 13.472950 0.000000 0.000000 0.000000 0.575967 0.276898 -3.100964 -0.988040 -0.016324 -2.080543 2.008623 -2.351565 11.093940 0.000000 0.000000 0.000000 6.703085 -0.343308 2.621524 -8.551225 2.578693 -22.346933 -0.563810 -4.906316 29.704859 6.148959 -3.765592 -28.064484 0.000000 0.000000 0.000000 0.387500 -4.392616 1.580757 -37.338884 -6.907937 -4.157554 65.066661 -82.053555 -45.563540 0.000000 0.000000 0.000000 11.739710 -16.790054 -10.500233 58.139856 -1.026081 -9.141675 46.881188 75.774824 36.960918 0.000000 0.000000 0.000000 
-0.022341 0.951111 -0.040257 -1.576400 -8.438573 2.864113 10.146186 0.089392 3.528743 -2.604323 0.425401 -7.092847 3.295846 9.357528 13.618779 0.000000 0.000000 0.000000 0.411259 0.181899 -2.051866 -0.906127 -0.058801 -2.990440 1.126718 -3.953054 11.793642 0.000000 0.000000 0.000000 6.507666 -0.308551 2.240775 -9.312024 2.825744 -22.440033 0.235159 -3.398329 29.543546 6.823260 -3.731398 -27.105801 0.000000 0.000000 0.000000 -0.900898 -3.246154 1.290811 -34.680615 -8.471606 -3.724035 61.468150 -80.206863 -43.051520 0.000000 0.000000 0.000000 11.797844 -17.022467 -10.085027 57.008480 -0.680721 -8.693495 41.407138 75.559566 34.096281 0.000000 0.000000 0.000000 
-0.019422 0.951495 -0.040319 -1.768381 -5.745225 2.600990 10.564604 -0.006700 3.031333 -2.724021 0.409282 -6.838157 1.922860 7.403471 13.257412 0.000000 0.000000 0.000000 0.490263 0.089474 -1.097992 -0.674297 -0.092192 -3.470097 0.181230 -5.549535 12.286432 0.000000 0.000000 0.000000 6.678780 -0.298424 2.052522 -9.948235 3.058935 -22.004950 0.968288 -2.099506 28.545926 7.355523 -3.671851 -26.014453 0.000000 0.000000 0.000000 -1.107766 -1.826984 0.723179 -33.916143 -10.231944 -3.175425 53.952461 -80.559237 -38.357239 0.000000 0.000000 0.000000 11.689145 -17.043124 -9.602612 56.581976 -1.567328 -8.864527 39.428335 74.682301 33.406527 0.000000 0.000000 0.000000 
